<svg width="40" height="40" viewBox="0 0 40 40" fill="none" xmlns="http://www.w3.org/2000/svg">
<circle cx="20" cy="20" r="20" fill="#EED19C"/>
<g clip-path="url(#clip0_3_1078)">
<path d="M20 12C15.5824 12 12 15.5824 12 20C12 24.4176 15.5824 28 20 28C24.4176 28 28 24.4176 28 20C28 15.5824 24.4176 12 20 12ZM17.6753 24.0938H15.7269V18.2321H17.6753V24.0938ZM16.7012 17.4316H16.6885C16.0347 17.4316 15.6118 16.9816 15.6118 16.4191C15.6118 15.8439 16.0476 15.4062 16.7141 15.4062C17.3806 15.4062 17.7908 15.8439 17.8035 16.4191C17.8035 16.9816 17.3806 17.4316 16.7012 17.4316ZM24.7007 24.0938H22.7526V20.9579C22.7526 20.1698 22.4705 19.6323 21.7655 19.6323C21.2273 19.6323 20.9067 19.9949 20.7659 20.3448C20.7144 20.4701 20.7018 20.6451 20.7018 20.8203V24.0938H18.7535C18.7535 24.0938 18.7791 18.782 18.7535 18.2321H20.7018V19.062C20.9607 18.6626 21.424 18.0945 22.4576 18.0945C23.7395 18.0945 24.7007 18.9323 24.7007 20.7327V24.0938Z" fill="black"/>
</g>
<defs>
<clipPath id="clip0_3_1078">
<rect width="16" height="16" fill="white" transform="translate(12 12)"/>
</clipPath>
</defs>
</svg>
