<svg width="58" height="58" viewBox="0 0 58 58" fill="none" xmlns="http://www.w3.org/2000/svg">
<circle cx="29" cy="29" r="29" fill="#EED19C"/>
<rect width="24" height="24" transform="translate(17.0001 17)" fill="#EED19C"/>
<path fill-rule="evenodd" clip-rule="evenodd" d="M33.5521 39.133C32.1121 39.08 28.0311 38.516 23.7571 34.243C19.4841 29.969 18.9211 25.889 18.8671 24.448C18.7871 22.252 20.4691 20.119 22.4121 19.286C22.6461 19.1849 22.9023 19.1465 23.1557 19.1743C23.409 19.2022 23.6507 19.2955 23.8571 19.445C25.4571 20.611 26.5611 22.375 27.5091 23.762C27.7177 24.0667 27.8069 24.4375 27.7597 24.8038C27.7125 25.17 27.5322 25.5061 27.2531 25.748L25.3021 27.197C25.2079 27.265 25.1415 27.365 25.1154 27.4783C25.0893 27.5916 25.1052 27.7105 25.1601 27.813C25.6021 28.616 26.3881 29.812 27.2881 30.712C28.1881 31.612 29.4411 32.45 30.3001 32.942C30.4078 33.0024 30.5346 33.0193 30.6544 32.9892C30.7742 32.9591 30.8778 32.8842 30.9441 32.78L32.2141 30.847C32.4476 30.5368 32.792 30.329 33.1753 30.2672C33.5585 30.2053 33.9509 30.2941 34.2701 30.515C35.6771 31.489 37.3191 32.574 38.5211 34.113C38.6827 34.3209 38.7856 34.5684 38.8188 34.8296C38.8521 35.0908 38.8145 35.3562 38.7101 35.598C37.8731 37.551 35.7551 39.214 33.5521 39.133Z" fill="black"/>
</svg>
