<svg width="58" height="58" viewBox="0 0 58 58" fill="none" xmlns="http://www.w3.org/2000/svg">
<circle cx="29" cy="29" r="29" fill="#EED19C"/>
<g clip-path="url(#clip0_3_1042)">
<path d="M31.0057 31.7043C30.4086 32.1024 29.7151 32.3128 29 32.3128C28.285 32.3128 27.5914 32.1024 26.9943 31.7043L17.1598 25.1478C17.1052 25.1114 17.0521 25.0735 17 25.0345V35.7781C17 37.0099 17.9996 37.9874 19.2094 37.9874H38.7906C40.0224 37.9874 41 36.9878 41 35.7781V25.0344C40.9478 25.0735 40.8945 25.1115 40.8398 25.148L31.0057 31.7043Z" fill="black"/>
<path d="M17.9398 23.9777L27.7744 30.5343C28.1466 30.7825 28.5733 30.9066 29 30.9066C29.4267 30.9066 29.8534 30.7825 30.2256 30.5343L40.0602 23.9777C40.6487 23.5856 41 22.9293 41 22.2211C41 21.0032 40.0092 20.0125 38.7914 20.0125H19.2086C17.9908 20.0125 17 21.0032 17 22.2222C17 22.9293 17.3514 23.5856 17.9398 23.9777Z" fill="black"/>
</g>
<defs>
<clipPath id="clip0_3_1042">
<rect width="24" height="24" fill="white" transform="translate(17 17)"/>
</clipPath>
</defs>
</svg>
