<svg width="58" height="58" viewBox="0 0 58 58" fill="none" xmlns="http://www.w3.org/2000/svg">
<circle cx="29" cy="29" r="29" fill="#EED19C"/>
<path fill-rule="evenodd" clip-rule="evenodd" d="M28.6425 40.849C28.735 40.9455 28.865 41 29 41C29.135 41 29.265 40.9455 29.3575 40.849C29.3575 40.849 32.2775 37.8532 34.6125 33.9702C36.195 31.3375 37.5 28.2987 37.5 25.5C37.5 20.8088 33.69 17 29 17C24.31 17 20.5 20.8088 20.5 25.5C20.5 28.2987 21.805 31.3375 23.3875 33.9702C25.7225 37.8532 28.6425 40.849 28.6425 40.849ZM29 21.75C31.07 21.75 32.75 23.4303 32.75 25.5C32.75 27.5697 31.07 29.25 29 29.25C26.93 29.25 25.25 27.5697 25.25 25.5C25.25 23.4303 26.93 21.75 29 21.75Z" fill="black"/>
</svg>
