<svg width="40" height="40" viewBox="0 0 40 40" fill="none" xmlns="http://www.w3.org/2000/svg">
<circle cx="20" cy="20" r="20" fill="#EED19C"/>
<g clip-path="url(#clip0_3_1065)">
<path d="M28 20C28 15.5813 24.4187 12 20 12C15.5813 12 12 15.5813 12 20C12 24.4187 15.5813 28 20 28C20.0469 28 20.0938 28 20.1406 27.9969V21.7719H18.4219V19.7688H20.1406V18.2937C20.1406 16.5844 21.1844 15.6531 22.7094 15.6531C23.4406 15.6531 24.0688 15.7062 24.25 15.7313V17.5188H23.2C22.3719 17.5188 22.2094 17.9125 22.2094 18.4906V19.7656H24.1938L23.9344 21.7688H22.2094V27.6906C25.5531 26.7312 28 23.6531 28 20Z" fill="black"/>
</g>
<defs>
<clipPath id="clip0_3_1065">
<rect width="16" height="16" fill="white" transform="translate(12 12)"/>
</clipPath>
</defs>
</svg>
