<svg width="40" height="40" viewBox="0 0 40 40" fill="none" xmlns="http://www.w3.org/2000/svg">
<circle cx="20" cy="20" r="20" fill="#EED19C"/>
<g clip-path="url(#clip0_3_1074)">
<path fill-rule="evenodd" clip-rule="evenodd" d="M16.3334 12.6666C14.3083 12.6666 12.6667 14.3082 12.6667 16.3333V23.6666C12.6667 25.6917 14.3083 27.3333 16.3334 27.3333H23.6667C25.6918 27.3333 27.3334 25.6917 27.3334 23.6666V16.3333C27.3334 14.3082 25.6918 12.6666 23.6667 12.6666H16.3334ZM20 17.3333C18.5273 17.3333 17.3334 18.5272 17.3334 20C17.3334 21.4727 18.5273 22.6666 20 22.6666C21.4728 22.6666 22.6667 21.4727 22.6667 20C22.6667 18.5272 21.4728 17.3333 20 17.3333ZM16 20C16 17.7908 17.7909 16 20 16C22.2092 16 24 17.7908 24 20C24 22.2091 22.2092 24 20 24C17.7909 24 16 22.2091 16 20ZM24 14.6666C23.2636 14.6666 22.6667 15.2636 22.6667 16C22.6667 16.7363 23.2636 17.3333 24 17.3333C24.7364 17.3333 25.3334 16.7363 25.3334 16C25.3334 15.2636 24.7364 14.6666 24 14.6666Z" fill="black"/>
</g>
<defs>
<clipPath id="clip0_3_1074">
<rect width="16" height="16" fill="white" transform="translate(12 12)"/>
</clipPath>
</defs>
</svg>
