<svg width="20" height="20" viewBox="0 0 20 20" fill="none" xmlns="http://www.w3.org/2000/svg">
<path d="M5.65716 1.88919L6.84287 1.53205C7.38262 1.36921 7.96319 1.40836 8.4762 1.64219C8.9892 1.87602 9.39958 2.28854 9.63073 2.80276L10.3686 4.44419C10.5674 4.88638 10.6228 5.37972 10.527 5.85499C10.4312 6.33025 10.1889 6.76359 9.8343 7.09419L8.54501 8.29633C8.52959 8.31166 8.51658 8.32924 8.50644 8.34848C8.37144 8.62419 8.57644 9.36062 9.21859 10.4735C9.94287 11.7278 10.5022 12.2235 10.7614 12.147L12.4536 11.6292C12.917 11.4877 13.4131 11.4947 13.8723 11.6493C14.3315 11.8039 14.7308 12.0984 15.0143 12.4913L16.0629 13.9435C16.3921 14.3994 16.5446 14.9594 16.492 15.5193C16.4395 16.0792 16.1854 16.601 15.7772 16.9878L14.875 17.8413C14.5613 18.1385 14.1804 18.3553 13.7647 18.4734C13.349 18.5914 12.9109 18.6071 12.4879 18.5192C9.97573 17.9963 7.72502 15.9735 5.71644 12.4949C3.70716 9.01419 3.08073 6.04991 3.88787 3.61205C4.02298 3.20391 4.25435 2.83429 4.56243 2.53442C4.8705 2.23455 5.24552 2.01324 5.65716 1.88919ZM5.96787 2.91491C5.72088 2.9893 5.49542 3.12205 5.31055 3.30195C5.12568 3.48185 4.98683 3.7036 4.90573 3.94848C4.21002 6.04919 4.77359 8.71776 6.64502 11.9592C8.51502 15.1985 10.5422 17.0199 12.7072 17.4699C12.961 17.5226 13.2238 17.5131 13.4732 17.4422C13.7226 17.3713 13.9511 17.2411 14.1393 17.0628L15.0407 16.2099C15.2607 16.0017 15.3975 15.7208 15.4259 15.4193C15.4543 15.1177 15.3722 14.8162 15.195 14.5706L14.1464 13.1178C13.9938 12.9062 13.7789 12.7477 13.5316 12.6644C13.2844 12.5812 13.0174 12.5773 12.7679 12.6535L11.0714 13.1728C10.1329 13.452 9.25001 12.6699 8.29144 11.0085C7.4793 9.60276 7.19787 8.58705 7.54501 7.87776C7.61263 7.73967 7.70263 7.618 7.81501 7.51276L9.1043 6.31062C9.29533 6.13261 9.42582 5.89924 9.47744 5.64328C9.52907 5.38732 9.49925 5.12162 9.39216 4.88348L8.65359 3.24276C8.52913 2.96581 8.30811 2.74362 8.03182 2.6177C7.75552 2.49177 7.44284 2.47072 7.15216 2.55848L5.96787 2.91491Z" fill="black"/>
</svg>
